<?xml version="1.0" encoding="UTF-8" standalone="no"?>
<svg
   viewBox="0 0 381.72 634.89001"
   version="1.1"
   id="svg39"
   sodipodi:docname="mosshi-icono.svg"
   width="381.72"
   height="634.89001"
   inkscape:version="1.1 (c68e22c387, 2021-05-23)"
   xmlns:inkscape="http://www.inkscape.org/namespaces/inkscape"
   xmlns:sodipodi="http://sodipodi.sourceforge.net/DTD/sodipodi-0.dtd"
   xmlns="http://www.w3.org/2000/svg"
   xmlns:svg="http://www.w3.org/2000/svg">
  <sodipodi:namedview
     id="namedview41"
     pagecolor="#ffffff"
     bordercolor="#666666"
     borderopacity="1.0"
     inkscape:pageshadow="2"
     inkscape:pageopacity="0.0"
     inkscape:pagecheckerboard="0"
     showgrid="false"
     fit-margin-top="0"
     fit-margin-left="0"
     fit-margin-right="0"
     fit-margin-bottom="0"
     inkscape:zoom="0.92444444"
     inkscape:cx="190.92548"
     inkscape:cy="230.94952"
     inkscape:window-width="1920"
     inkscape:window-height="1017"
     inkscape:window-x="1072"
     inkscape:window-y="-8"
     inkscape:window-maximized="1"
     inkscape:current-layer="svg39">
    <inkscape:grid
       type="xygrid"
       id="grid43"
       originx="-259.16"
       originy="-132.57" />
  </sodipodi:namedview>
  <defs
     id="defs4">
    <style
       id="style2">.cls-1{fill:#343443;}</style>
  </defs>
  <g
     id="Logotipo"
     transform="translate(-259.16,-132.57)">
    <path
       class="cls-1"
       d="m 604.84,498.31 -2.13,-2.59 V 422 a 183.49,183.49 0 0 0 32.86,-105.06 c 0,-101.83 -82.55,-184.37 -184.38,-184.37 -101.83,0 -184.37,82.51 -184.37,184.34 a 183.51,183.51 0 0 0 30.47,101.54 v 77.27 l -2.13,2.59 c -1.47,1.78 -36,44.29 -36,97.72 0,53.43 34.49,95.93 36,97.71 l 6.84,8.36 6.88,-8.36 c 1.47,-1.78 36,-44.29 36,-97.71 0,-53.42 -34.49,-95.94 -36,-97.72 l -2.12,-2.59 v -64.17 a 184,184 0 0 0 139,69.65 v 59.89 l -2.13,2.58 c -1.47,1.78 -36,44.3 -36,97.72 0,53.42 34.49,95.93 36,97.72 l 6.88,8.35 6.89,-8.35 c 1.46,-1.79 35.95,-44.3 35.95,-97.72 0,-53.42 -34.49,-95.94 -35.95,-97.72 l -2.13,-2.58 V 501.23 A 184,184 0 0 0 593.2,434.5 v 61.22 l -2.12,2.59 c -1.47,1.78 -36,44.29 -36,97.72 0,53.43 34.49,95.93 36,97.71 l 6.92,8.36 6.88,-8.36 c 1.47,-1.78 36,-44.29 36,-97.71 0,-53.42 -34.57,-95.94 -36.04,-97.72 z M 277,596 c 0,-27.86 11.14,-53 20.26,-68.85 V 664.87 C 288.17,649 277,623.88 277,596 Z m 50,0 c 0,27.85 -11.15,53 -20.26,68.84 V 527.18 c 9.17,15.88 20.32,40.99 20.32,68.82 z m 98.52,65.36 c 0,-27.86 11.15,-53 20.26,-68.85 v 137.72 c -9.06,-15.88 -20.2,-40.99 -20.2,-68.84 z m 50,0 c 0,27.86 -11.15,53 -20.26,68.84 V 592.54 c 9.2,15.88 20.35,40.99 20.35,68.85 z m 19.55,-189.81 -0.27,-1.1 a 187.72,187.72 0 0 1 -4.23,-18.81 c -1.33,-8.8 -3.34,-17.46 -4.38,-26.33 -1.38,-11.79 -3.23,-23.55 -2.6,-35.45 a 48.22,48.22 0 0 1 2.42,-13.24 c 3,-8.56 10.89,-12.2 18.53,-13.7 a 71.94,71.94 0 0 1 25.88,0.12 c 14.54,2.52 28.38,7.57 42.17,12.7 5,1.85 9.78,0.13 11.5,-4.07 1.9,-4.63 -0.22,-8.68 -5.39,-11.16 a 128,128 0 0 0 -18.42,-6.9 c -11.57,-3.54 -23.07,-7.42 -35.35,-7.57 -3.06,0 -3.66,-1.24 -2.3,-3.84 A 34.1,34.1 0 0 1 540.82,326 c 6.21,-2.5 12.75,-4.17 18.82,-7.09 9.34,-4.48 17.84,-9.95 23.46,-19 3,-4.89 2.22,-10.05 -2,-12.64 -4,-2.47 -8.77,-1.06 -11.9,3.62 -3.32,5 -7.84,8.42 -13,11.3 -5.83,3.23 -12.24,4.77 -18.41,7 -16,5.83 -27.09,16.77 -33.39,32.42 -1.31,3.26 -2.77,5.35 -6.14,5.88 -8.29,1.31 -14.71,6 -20.6,11.5 a 28.35,28.35 0 0 0 -7.52,12.49 75.08,75.08 0 0 0 -3,24.89 150.29,150.29 0 0 0 0.77,15.87 c 1,10.79 2.65,21.48 4.26,32.18 1.32,8.78 3.44,17.46 5.35,26.15 0.35,1.57 0.74,3.14 1.16,4.7 a 161.91,161.91 0 0 1 -20.81,2.21 c 0,-0.23 0.05,-0.46 0.07,-0.7 0.78,-13.69 0.64,-27.4 0.65,-41.1 0,-14.1 0.15,-28.2 0,-42.3 -0.24,-17.75 2.22,-34.84 9.3,-51.37 6.15,-14.35 13.57,-27.65 25.71,-37.68 7.86,-6.49 16.33,-12.23 24.51,-18.33 16,-11.93 28,-26.65 32.41,-46.68 1.18,-5.32 -1.07,-10.43 -5.93,-11.79 -4,-1.13 -8.49,2.17 -10,7 -1.1,3.56 -1.89,7.2 -3.35,10.68 -4.35,10.33 -11.53,18.31 -20.1,25.2 -2,1.58 -3.6,1.88 -3.43,-1.51 A 41.69,41.69 0 0 0 506.18,257.05 55.78,55.78 0 0 0 493.47,232.99 7.4,7.4 0 0 0 483,232 c -4.08,3.12 -4.9,6.47 -2.41,10.76 1.15,2 2.67,3.81 4,5.74 a 37.65,37.65 0 0 1 6.63,19.19 c 0.55,11.25 -4.39,20.16 -12.44,27.66 a 81.43,81.43 0 0 0 -16.21,20.65 10.78,10.78 0 0 1 -3.51,4.43 23.11,23.11 0 0 1 -0.39,-2.89 c 0,-10.35 -0.54,-20.74 0.25,-31 1.2,-15.62 3.94,-31.07 11.25,-45.18 a 78.73,78.73 0 0 1 28,-31 c 2.21,-1.4 4.32,-3 4.64,-5.86 0.34,-3.07 0.15,-6.11 -2.67,-8 a 9.39,9.39 0 0 0 -10.64,-0.16 66.81,66.81 0 0 0 -10.45,7.36 c -12.28,11.19 -22.21,24.12 -28.07,39.87 -0.27,0.71 -0.29,1.72 -1.25,1.72 -0.96,0 -1,-1 -1.25,-1.72 -5.87,-15.74 -15.66,-28.81 -28.1,-39.83 -4.08,-3.62 -8.4,-7.43 -14,-8.67 -5.81,-1.27 -10,2.4 -9.81,8.29 0.11,4.35 3.22,6.33 6.32,8.17 11.38,6.78 19.27,16.86 25.5,28.11 8.44,15.36 11.21,32.36 12.33,49.58 0.59,9 -0.43,18.1 0.72,27.12 a 4.44,4.44 0 0 1 -1.37,4.13 c -6.57,-11.27 -14.91,-20.7 -23.72,-29.86 a 29.5,29.5 0 0 1 -8.1,-22 c 0.38,-9.45 4.4,-17.37 10,-24.72 3.37,-4.4 2.79,-8 -1.38,-11.53 -3.48,-2.94 -7.75,-2.86 -11,0.88 -8.63,9.93 -13.73,21.4 -14.11,34.74 0,1.22 0.58,2.91 -0.83,3.52 -1.41,0.61 -2.34,-0.78 -3.32,-1.55 -11.76,-9.27 -19.74,-21 -22.92,-35.76 -0.92,-4.28 -5.68,-7.53 -9.53,-6.65 -4.17,0.95 -7.58,5.83 -6.6,10.05 a 79.5,79.5 0 0 0 9.21,23.71 c 7.25,11.86 17.68,20.47 28.6,28.61 6.74,5 13.82,9.63 20.15,15.11 18.48,15.98 26.87,37.52 32.34,60.41 2.47,10.3 2.69,21 2.7,31.61 q 0,27.94 0,55.88 c 0,8 -0.07,16.05 0,24.06 0,0.15 0,0.28 0,0.42 a 160.23,160.23 0 0 1 -20.93,-2.62 q 1.65,-6.5 3,-13.06 c 2.37,-11.33 4.54,-22.69 5.89,-34.23 1.2,-10.26 2.8,-20.45 2.75,-32.38 A 85.36,85.36 0 0 0 431,378.54 c -2.36,-14.89 -11.26,-24 -24.8,-29.55 -4,-1.66 -9.46,-1.36 -11.18,-7.05 -1.27,-4.2 -3.57,-7.89 -6,-11.57 a 54,54 0 0 0 -19.64,-17.7 c -5.95,-3.21 -12.48,-4.83 -18.77,-7.15 -8.32,-3.06 -15.9,-7.4 -20.86,-15.3 a 8.32,8.32 0 0 0 -11.46,-2.88 c -3.8,2.42 -4.88,7.33 -2.46,11.67 a 31.42,31.42 0 0 0 2.87,4.13 54.14,54.14 0 0 0 20.81,15.79 c 5.63,2.52 11.71,4 17.39,6.26 8.1,3.26 15.06,8.39 19.49,16.43 1.54,2.8 1.16,3.4 -1.82,3.86 -8,1.24 -16.18,2 -23.88,4.32 A 281.76,281.76 0 0 0 321.5,360 c -5.45,2.31 -7.87,6.52 -6.11,11.22 1.76,4.7 6.41,6.27 12,4.34 17.5,-6.09 34.75,-12.94 53.74,-13.41 7,-0.17 13.75,0.36 20.09,2.88 6,2.39 11.33,6.45 12.78,13.12 0.94,4.34 2,8.78 2,13.36 0,11.9 -1.4,23.65 -3,35.41 -1.69,12.26 -4.18,24.36 -6.59,36.49 -0.49,2.48 -1.24,4.91 -1.86,7.37 -65.95,-20.06 -114.08,-81.44 -114.08,-153.86 0,-88.66 72.13,-160.78 160.78,-160.78 88.65,0 160.75,72.11 160.75,160.77 0,73.42 -49.49,135.5 -116.84,154.67 z M 572.94,596 c 0,-27.86 11.15,-53 20.26,-68.85 V 664.87 C 584.09,649 572.94,623.88 572.94,596 Z m 29.77,68.84 V 527.18 c 9.12,15.88 20.26,41 20.26,68.85 0,27.85 -11.14,52.97 -20.26,68.84 z"
       id="path6" />
    <path
       class="cls-1"
       d="m 499.18,313.73 c -10.64,0.23 -21.49,12.77 -20.21,23.41 0.52,4.31 2.82,7 5.72,6.28 11.29,-2.83 17.91,-8.22 19,-22.21 -0.26,-1.32 -0.55,-3.24 -1,-5.1 -0.45,-1.86 -1.69,-2.42 -3.51,-2.38 z"
       id="path8" />
    <path
       class="cls-1"
       d="m 580.56,326.76 c -11.33,-8.74 -26.8,-2.33 -31.95,8.62 -1,2 -0.44,3.59 1.64,4.85 a 23.74,23.74 0 0 0 13,3.56 c 6.6,-1.47 13.79,-4.15 17.86,-11.84 0.95,-1.78 1.47,-3.64 -0.55,-5.19 z"
       id="path10" />
    <path
       class="cls-1"
       d="m 350.36,339.66 c 1.42,-1 2,-2.18 1,-4 -4.35,-7.79 -10.75,-12.33 -19.76,-12.87 a 23.31,23.31 0 0 0 -11.82,3.37 c -2.1,1.18 -2.58,2.84 -1.55,4.88 6.45,12.76 21.53,16.29 32.13,8.62 z"
       id="path12" />
    <path
       class="cls-1"
       d="m 407,340.39 c 3.23,1.5 6.13,4.69 9.9,2.66 3.45,-1.87 2.3,-6 3,-8.52 a 20.91,20.91 0 0 0 -13.59,-19.21 c -2.68,-1.07 -5.79,-3.11 -8.37,-0.8 -2.58,2.31 -2.51,5.87 -1.9,9.12 1.33,7.04 3.67,13.36 10.96,16.75 z"
       id="path14" />
    <path
       class="cls-1"
       d="m 452.15,188.57 c -1.62,-1.5 -3,-1.55 -4.71,-0.1 -9.47,7.86 -9.86,24.05 -0.75,32.43 2.07,1.91 3.85,2.16 6,0 a 22.11,22.11 0 0 0 -0.52,-32.37 z"
       id="path16" />
    <path
       class="cls-1"
       d="m 368.86,391 a 22.72,22.72 0 0 0 21.79,-16.61 c 0.91,-3.51 -1.2,-4.8 -3.84,-5.53 -8.82,-2.42 -19.63,1.92 -24.28,9.75 -1.76,3 -4,6.33 -2.14,9.74 1.86,3.41 5.91,1.72 8.47,2.65 z"
       id="path18" />
    <path
       class="cls-1"
       d="m 518.46,368.64 c -1.16,0 -2.33,-0.05 -3.49,0 -6,0.29 -7.58,2.82 -5.12,8.32 4.87,10.9 14.51,15.83 26.2,13.37 2.65,-0.56 3.92,-1.95 3.57,-4.93 -1.06,-8.94 -10.82,-16.8 -21.16,-16.76 z"
       id="path20" />
    <path
       class="cls-1"
       d="m 539,283.31 c -10.46,-1.78 -23.21,8.44 -23.68,19.06 -0.27,5.91 0.33,6.55 6.09,6.5 11.24,-0.09 21.53,-10.28 21.15,-20.89 -0.06,-2.47 -0.78,-4.21 -3.56,-4.67 z"
       id="path22" />
    <path
       class="cls-1"
       d="m 472.12,257.47 c -4.89,4.47 -7.92,9.79 -7.2,16.84 -0.71,4.78 1.19,8.94 3.91,12.83 1.93,2.76 4.23,3 6.95,1.12 9.18,-6.43 11.23,-21.78 4,-30.31 -2.78,-3.3 -4.4,-3.45 -7.66,-0.48 z"
       id="path24" />
    <path
       class="cls-1"
       d="m 423.91,288.41 c 2.32,1.55 4.23,1.38 6.11,-0.79 3.4,-3.9 5.15,-8.3 4.56,-13.59 0.91,-7.26 -2.71,-12.54 -7.85,-17.12 -2.4,-2.15 -4.46,-1.9 -6.64,0.51 -7.64,8.44 -5.67,24.68 3.82,30.99 z"
       id="path26" />
    <path
       class="cls-1"
       d="m 384.22,206.82 c -3.07,-3 -4.46,-2.91 -7.33,0.28 -7.76,8.61 -6.15,24.35 3.13,31.17 2,1.5 3.77,1.34 5.44,-0.51 3.78,-4.2 6.05,-9 5.65,-14.95 0.57,-6.42 -2.35,-11.57 -6.89,-15.99 z"
       id="path28" />
    <path
       class="cls-1"
       d="m 516,206.06 a 21.86,21.86 0 0 0 -2.11,31.49 c 2,2.21 3.81,2.25 6,0.39 a 21,21 0 0 0 7.71,-16.68 c -0.07,-6 -2.18,-11.41 -5.57,-14.83 -1.98,-1.97 -3.73,-2.35 -6.03,-0.37 z"
       id="path30" />
    <path
       class="cls-1"
       d="m 377.94,308.87 c 5.52,0.09 6.41,-0.77 6.23,-6.14 -0.35,-10.31 -11.32,-19.86 -22.25,-19.53 -3.65,0.11 -5.2,1.73 -5,5.28 0.59,10.52 9.85,20.52 21.02,20.39 z"
       id="path32" />
    <path
       class="cls-1"
       d="m 333.14,248.36 c -2.47,-0.73 -4.88,-1.14 -6.12,2.06 -3.41,8.81 1.33,21.54 9.7,26 8.37,4.46 11.7,2.46 11.77,-6.91 0.07,-9.37 -6.49,-18.51 -15.35,-21.15 z"
       id="path34" />
    <path
       class="cls-1"
       d="m 567.89,248 c -11.38,1.77 -19.76,16.18 -16,27.15 1.19,3.44 3.2,4 6.22,3.15 8.76,-2.57 15.44,-11.47 15.7,-20.62 -0.41,-2.29 -0.73,-4.59 -1.26,-6.84 -0.55,-2.46 -2.18,-3.25 -4.66,-2.84 z"
       id="path36" />
  </g>
</svg>
