<?xml version="1.0" encoding="UTF-8" standalone="no"?>
<svg
   viewBox="0 0 636.28003 207.67584"
   version="1.1"
   id="svg19"
   sodipodi:docname="mosshi-trademark.svg"
   width="636.28003"
   height="207.67584"
   inkscape:version="1.1 (c68e22c387, 2021-05-23)"
   xmlns:inkscape="http://www.inkscape.org/namespaces/inkscape"
   xmlns:sodipodi="http://sodipodi.sourceforge.net/DTD/sodipodi-0.dtd"
   xmlns="http://www.w3.org/2000/svg"
   xmlns:svg="http://www.w3.org/2000/svg">
  <sodipodi:namedview
     id="namedview21"
     pagecolor="#ffffff"
     bordercolor="#666666"
     borderopacity="1.0"
     inkscape:pageshadow="2"
     inkscape:pageopacity="0.0"
     inkscape:pagecheckerboard="0"
     showgrid="false"
     fit-margin-top="0"
     fit-margin-left="0"
     fit-margin-right="0"
     fit-margin-bottom="0"
     inkscape:zoom="0.92444444"
     inkscape:cx="8.1129808"
     inkscape:cy="104.38702"
     inkscape:window-width="1920"
     inkscape:window-height="1017"
     inkscape:window-x="1072"
     inkscape:window-y="-8"
     inkscape:window-maximized="1"
     inkscape:current-layer="svg19" />
  <defs
     id="defs4">
    <style
       id="style2">.cls-1{fill:#343443;}</style>
  </defs>
  <g
     id="Logotipo"
     transform="translate(-131.85,-346.15416)">
    <path
       class="cls-1"
       d="m 244,500 -37,-73.68 -1.33,24.77 q -0.61,10.79 -1.08,21.42 -0.47,10.63 -1.7,20.25 a 100.54,100.54 0 0 1 -3.89,17.81 42.08,42.08 0 0 1 -7.6,14.24 33.65,33.65 0 0 1 -12.95,9.4 q -8,3.39 -19.88,3.39 a 56.59,56.59 0 0 1 -10.07,-0.87 41.38,41.38 0 0 1 -8.53,-2.42 19,19 0 0 1 -5.91,-3.65 6.26,6.26 0 0 1 -2.21,-4.57 14.46,14.46 0 0 1 0.51,-3.75 12.61,12.61 0 0 1 1.54,-3.49 8.59,8.59 0 0 1 2.52,-2.57 6,6 0 0 1 3.34,-1 2.53,2.53 0 0 1 2,1.13 21.59,21.59 0 0 1 1.79,2.83 c 0.62,1.13 1.32,2.34 2.11,3.65 a 16,16 0 0 0 3.08,3.64 16.37,16.37 0 0 0 4.57,2.83 17.31,17.31 0 0 0 6.68,1.13 29.41,29.41 0 0 0 13.31,-2.72 23.39,23.39 0 0 0 8.89,-7.86 38.9,38.9 0 0 0 5.34,-12.44 113.24,113.24 0 0 0 2.81,-16.47 c 0.27,-3.43 0.54,-6.73 0.82,-9.92 0.28,-3.19 0.55,-6.35 0.82,-9.5 0.27,-3.15 0.53,-6.36 0.77,-9.61 0.24,-3.25 0.5,-6.7 0.77,-10.33 q 0.51,-7.9 0.93,-15 0.42,-7.1 0.66,-13.31 0.25,-6.17 0.42,-11.1 c 0.1,-3.28 0.18,-6.13 0.25,-8.52 Q 194,400 192.7,397.8 a 13.4,13.4 0 0 0 -2.77,-3.39 7.68,7.68 0 0 0 -3.19,-1.59 18.34,18.34 0 0 0 -4.21,-0.41 21,21 0 0 0 -5.09,0.77 39,39 0 0 0 -6.27,2.21 47,47 0 0 0 -6.47,3.54 30.36,30.36 0 0 0 -5.75,4.83 25,25 0 0 0 -4.12,6 16.08,16.08 0 0 0 -1.59,7.09 13.08,13.08 0 0 0 0.87,5.24 8,8 0 0 0 2.06,2.93 5.66,5.66 0 0 0 2.36,1.23 8.61,8.61 0 0 0 1.7,0.26 9,9 0 0 0 4.21,-0.87 24.1,24.1 0 0 0 3,-1.85 l 2.52,-1.85 a 4.49,4.49 0 0 1 2.72,-0.88 6.89,6.89 0 0 1 2.62,0.57 7.52,7.52 0 0 1 2.57,1.8 10.25,10.25 0 0 1 2,3.23 13.09,13.09 0 0 1 0.82,4.89 14.87,14.87 0 0 1 -1.59,7.09 16,16 0 0 1 -4.12,5 17.11,17.11 0 0 1 -5.75,3 23,23 0 0 1 -15.31,-0.72 19.57,19.57 0 0 1 -6.73,-4.68 20,20 0 0 1 -4.21,-7 25,25 0 0 1 -1.44,-8.53 34.66,34.66 0 0 1 4.93,-18.65 43.13,43.13 0 0 1 12.95,-13.31 59,59 0 0 1 18.13,-8 81.79,81.79 0 0 1 20.61,-2.62 49.76,49.76 0 0 1 14.07,1.69 30.49,30.49 0 0 1 9.46,4.52 25.92,25.92 0 0 1 6.31,6.66 76.88,76.88 0 0 1 4.52,8 l 27.12,55.07 q 10.59,-20.85 19.27,-37.35 8.68,-16.5 16.08,-29 7.4,-12.52 13.82,-21.37 a 100.73,100.73 0 0 1 12.39,-14.45 43,43 0 0 1 11.92,-8.17 30.48,30.48 0 0 1 12.28,-2.56 15.38,15.38 0 0 1 8.83,2.31 7.83,7.83 0 0 1 3.39,6.93 15.21,15.21 0 0 1 -1.33,6.79 c -0.89,1.78 -2.13,2.67 -3.7,2.67 a 3.4,3.4 0 0 1 -3,-1.49 c -0.69,-1 -1.35,-2.07 -2,-3.24 a 15.85,15.85 0 0 0 -2.41,-3.24 5.6,5.6 0 0 0 -4.21,-1.49 11.31,11.31 0 0 0 -4,0.93 21.46,21.46 0 0 0 -4.88,2.77 33.06,33.06 0 0 0 -5,4.63 29.52,29.52 0 0 0 -4.31,6.47 35.79,35.79 0 0 0 -3.48,18.79 q 0.4,6.48 1.13,15.16 0.73,8.68 1.59,18.6 0.87,9.92 1.85,20.5 0.98,10.58 2,20.86 1,10.28 2,19.73 1,9.45 1.8,17.15 0.82,7.65 1.54,12.94 0.72,5.29 1.13,7.25 a 16.55,16.55 0 0 0 1.65,4.78 3.88,3.88 0 0 0 3.7,1.79 14.1,14.1 0 0 0 5.24,-1 44.3,44.3 0 0 0 4.42,-2 l 1.64,3.81 q -1.85,1.34 -4.67,3 a 51.45,51.45 0 0 1 -6.48,3.23 49.19,49.19 0 0 1 -8,2.57 40.79,40.79 0 0 1 -9.4,1 q -7.1,0 -11.21,-1.8 a 16.81,16.81 0 0 1 -6.31,-4.42 14,14 0 0 1 -3,-5.54 c -0.52,-2 -0.91,-3.72 -1.19,-5.3 q -0.92,-5.24 -1.95,-12.64 -1.03,-7.4 -2,-15.87 -1,-8.48 -1.9,-17.47 -0.9,-8.99 -1.7,-17.57 -0.76,-8.58 -1.39,-16.18 -0.63,-7.6 -1,-13.26 -3.09,5 -5.71,9.71 -2.62,4.71 -5.08,9.61 -2.48,4.88 -5,10.22 -2.52,5.34 -5.39,11.61 -2.83,6.27 -6.17,13.77 -3.34,7.5 -7.39,16.76 z"
       id="path6" />
    <path
       class="cls-1"
       d="m 353.41,484.17 a 65.41,65.41 0 0 1 3.9,-23.59 50,50 0 0 1 10.44,-16.9 42.19,42.19 0 0 1 15.15,-10.17 49,49 0 0 1 18.1,-3.39 52.52,52.52 0 0 1 18.08,3.13 41.2,41.2 0 0 1 15.16,9.61 47,47 0 0 1 10.43,16.39 q 3.9,9.92 3.9,23.48 a 67.53,67.53 0 0 1 -3.9,23.84 53.16,53.16 0 0 1 -10.44,17.43 43.35,43.35 0 0 1 -15.16,10.73 46,46 0 0 1 -18.07,3.69 48.49,48.49 0 0 1 -18.1,-3.42 42.73,42.73 0 0 1 -15.15,-10.23 49.81,49.81 0 0 1 -10.44,-16.95 65.79,65.79 0 0 1 -3.9,-23.65 z m 63.2,-1 q 0,-8.22 -0.57,-15.88 a 71,71 0 0 0 -2.21,-13.61 24,24 0 0 0 -4.73,-9.51 10.23,10.23 0 0 0 -8.1,-3.57 10,10 0 0 0 -8.12,3.75 26,26 0 0 0 -4.73,9.86 72.41,72.41 0 0 0 -2.15,13.93 q -0.51,7.8 -0.51,16 0,8.2 0.51,16.08 a 73.41,73.41 0 0 0 2.16,14 26,26 0 0 0 4.73,9.92 10,10 0 0 0 8.12,3.75 9.83,9.83 0 0 0 8.11,-3.9 27.4,27.4 0 0 0 4.73,-10.28 80.37,80.37 0 0 0 2.15,-14.34 q 0.61,-8.01 0.61,-16.23 z"
       id="path8" />
    <path
       class="cls-1"
       d="m 500.76,438.34 a 15.83,15.83 0 0 0 -4.47,0.61 10.17,10.17 0 0 0 -3.75,2 9.45,9.45 0 0 0 -2.57,3.49 12.3,12.3 0 0 0 -0.92,5 13.33,13.33 0 0 0 2.92,8 69.67,69.67 0 0 0 7.3,8.22 q 4.37,4.26 9.45,8.84 a 102.43,102.43 0 0 1 9.46,9.65 54.84,54.84 0 0 1 7.29,10.85 26.67,26.67 0 0 1 2.93,12.33 32.67,32.67 0 0 1 -2.51,13.15 26.8,26.8 0 0 1 -7.2,9.76 32,32 0 0 1 -11.3,6.11 48.4,48.4 0 0 1 -14.75,2.11 39,39 0 0 1 -12.84,-2 46.92,46.92 0 0 1 -10.23,-4.93 45,45 0 0 1 -7.65,-6.22 41.44,41.44 0 0 1 -4.93,-6 l 3.59,-2.57 a 34.84,34.84 0 0 0 3.39,3.34 33.52,33.52 0 0 0 4.58,3.34 26.3,26.3 0 0 0 5.39,2.52 18.14,18.14 0 0 0 5.86,1 q 7.4,0 12.12,-3.54 4.72,-3.54 4.73,-10.53 a 15.37,15.37 0 0 0 -2.57,-8.07 62.64,62.64 0 0 0 -6.47,-8.58 c -2.61,-2.95 -5.41,-6 -8.43,-9.15 a 123.81,123.81 0 0 1 -8.42,-9.76 56.87,56.87 0 0 1 -6.48,-10.38 25.34,25.34 0 0 1 -2.57,-11.09 23.44,23.44 0 0 1 2.62,-11.31 23.89,23.89 0 0 1 7,-8 31,31 0 0 1 10,-4.78 42.12,42.12 0 0 1 11.56,-1.59 59.11,59.11 0 0 1 12.54,1.23 30.59,30.59 0 0 1 9.7,3.75 18.13,18.13 0 0 1 6.27,6.32 17.22,17.22 0 0 1 2.21,8.84 9.82,9.82 0 0 1 -2.61,6.7 9.13,9.13 0 0 1 -7.19,2.88 c -2.94,0 -5.19,-0.64 -6.73,-1.91 a 6.34,6.34 0 0 1 -2.31,-5.18 5,5 0 0 1 1.08,-3.4 9.48,9.48 0 0 1 2.41,-2 c 0.89,-0.51 1.7,-1 2.42,-1.33 a 1.69,1.69 0 0 0 1.08,-1.49 q 0,-2.88 -3.09,-4.58 a 16.3,16.3 0 0 0 -7.91,-1.65 z"
       id="path10" />
    <path
       class="cls-1"
       d="M 578.44,438.34 A 15.81,15.81 0 0 0 574,439 a 10.13,10.13 0 0 0 -3.76,2 9.43,9.43 0 0 0 -2.56,3.49 12.29,12.29 0 0 0 -0.93,5 13.34,13.34 0 0 0 2.93,8 68.63,68.63 0 0 0 7.29,8.22 q 4.38,4.26 9.46,8.84 a 103.55,103.55 0 0 1 9.45,9.65 54.89,54.89 0 0 1 7.3,10.85 26.8,26.8 0 0 1 2.93,12.33 32.5,32.5 0 0 1 -2.52,13.15 26.89,26.89 0 0 1 -7.19,9.76 32,32 0 0 1 -11.31,6.11 48.33,48.33 0 0 1 -14.74,2.11 39.06,39.06 0 0 1 -12.85,-2 46.84,46.84 0 0 1 -10.22,-4.93 45.5,45.5 0 0 1 -7.66,-6.22 42.12,42.12 0 0 1 -4.93,-6 l 3.6,-2.57 a 34.84,34.84 0 0 0 3.39,3.34 33.4,33.4 0 0 0 4.57,3.34 26.63,26.63 0 0 0 5.4,2.52 18,18 0 0 0 5.85,1 q 7.41,0 12.13,-3.54 4.72,-3.54 4.72,-10.53 a 15.35,15.35 0 0 0 -2.56,-8.07 63.59,63.59 0 0 0 -6.48,-8.58 c -2.6,-2.95 -5.41,-6 -8.42,-9.15 a 121.9,121.9 0 0 1 -8.43,-9.76 57.36,57.36 0 0 1 -6.46,-10.46 25.2,25.2 0 0 1 -2.57,-11.09 23.33,23.33 0 0 1 2.57,-11.31 23.78,23.78 0 0 1 7,-8 31.07,31.07 0 0 1 10,-4.78 42.17,42.17 0 0 1 11.56,-1.59 59.11,59.11 0 0 1 12.54,1.23 30.65,30.65 0 0 1 9.71,3.75 18.22,18.22 0 0 1 6.27,6.32 17.32,17.32 0 0 1 2.21,8.84 9.87,9.87 0 0 1 -2.57,6.78 9.13,9.13 0 0 1 -7.19,2.88 q -4.43,0 -6.73,-1.91 a 6.32,6.32 0 0 1 -2.32,-5.18 5,5 0 0 1 1.08,-3.4 9.52,9.52 0 0 1 2.42,-2 c 0.89,-0.51 1.69,-1 2.41,-1.33 a 1.69,1.69 0 0 0 1.08,-1.49 q 0,-2.88 -3.08,-4.58 a 16.37,16.37 0 0 0 -7.95,-1.7 z"
       id="path12" />
    <path
       class="cls-1"
       d="m 654.9,449.64 a 56,56 0 0 1 8.63,-9.76 43.75,43.75 0 0 1 4.36,-3.6 39.12,39.12 0 0 1 5.14,-3.13 29.83,29.83 0 0 1 5.76,-2.21 23.53,23.53 0 0 1 6.21,-0.82 27.72,27.72 0 0 1 12.34,2.67 22,22 0 0 1 9.14,8.94 q 3.71,6.27 5.65,16.59 a 141.42,141.42 0 0 1 2,25.64 110.78,110.78 0 0 1 -2.67,25.9 74,74 0 0 1 -7,18.7 48.43,48.43 0 0 1 -9.76,12.58 50.12,50.12 0 0 1 -11,7.66 44.39,44.39 0 0 1 -10.7,3.85 49.89,49.89 0 0 1 -8.84,1.18 l -1,-4.21 a 19.65,19.65 0 0 0 8.22,-4.21 c 2.39,-2.06 4.42,-5.43 6.06,-10.12 1.64,-4.69 2.89,-11 3.75,-19 a 296.33,296.33 0 0 0 1.29,-30.73 143.13,143.13 0 0 0 -1.19,-20.7 45.17,45.17 0 0 0 -3.08,-11.82 q -1.9,-4.05 -4.31,-5.34 a 10.31,10.31 0 0 0 -4.89,-1.29 8.91,8.91 0 0 0 -5.24,1.6 20.23,20.23 0 0 0 -4,3.65 30.18,30.18 0 0 0 -2.88,4.11 27.43,27.43 0 0 1 -2,3.08 v 68.64 a 16,16 0 0 1 -0.41,3.24 7.71,7.71 0 0 1 -2,3.59 12.42,12.42 0 0 1 -4.73,2.88 24.93,24.93 0 0 1 -8.58,1.18 23.79,23.79 0 0 1 -8.63,-1.28 13.13,13.13 0 0 1 -4.78,-3 8.06,8.06 0 0 1 -2,-3.6 14.72,14.72 0 0 1 -0.41,-3 V 395 a 9.49,9.49 0 0 0 -1.39,-5.18 c -0.92,-1.48 -2.48,-2.21 -4.67,-2.21 a 7.55,7.55 0 0 0 -3,0.56 12.78,12.78 0 0 0 -2.73,1.7 l -2,-2.47 a 60.89,60.89 0 0 1 5.24,-3.85 37.78,37.78 0 0 1 6.32,-3.34 47.41,47.41 0 0 1 7.34,-2.37 36,36 0 0 1 8.23,-0.92 q 6.67,0 10.37,1.8 a 13.34,13.34 0 0 1 5.45,4.42 12.71,12.71 0 0 1 2.11,5.54 43.29,43.29 0 0 1 0.36,5.19 z"
       id="path14" />
    <path
       class="cls-1"
       d="m 768.13,527.53 a 14,14 0 0 1 -0.46,3.24 7.72,7.72 0 0 1 -2.16,3.59 13.49,13.49 0 0 1 -4.88,2.88 25.44,25.44 0 0 1 -8.63,1.18 23,23 0 0 1 -8.53,-1.28 12.43,12.43 0 0 1 -4.62,-3 7.71,7.71 0 0 1 -1.9,-3.6 16.39,16.39 0 0 1 -0.36,-3 V 448.2 a 9.63,9.63 0 0 0 -1.39,-5.2 5.1,5.1 0 0 0 -4.68,-2.21 6.66,6.66 0 0 0 -3,0.62 15.69,15.69 0 0 0 -2.67,1.75 l -2.16,-2.57 a 57.77,57.77 0 0 1 5.3,-3.86 41.14,41.14 0 0 1 6.32,-3.34 46.8,46.8 0 0 1 7.29,-2.36 35.34,35.34 0 0 1 8.22,-0.92 q 6.67,0 10.38,1.8 a 13.33,13.33 0 0 1 5.45,4.41 12.83,12.83 0 0 1 2.1,5.6 44.48,44.48 0 0 1 0.36,5.24 z M 733.4,406.69 a 12.43,12.43 0 0 1 1.28,-5.5 14,14 0 0 1 3.6,-4.57 17.74,17.74 0 0 1 5.35,-3.08 18.59,18.59 0 0 1 6.62,-1.13 18.4,18.4 0 0 1 6.53,1.13 17.2,17.2 0 0 1 5.29,3.08 14.29,14.29 0 0 1 3.55,4.57 12.43,12.43 0 0 1 1.28,5.5 12.3,12.3 0 0 1 -1.28,5.55 14,14 0 0 1 -3.55,4.47 17.7,17.7 0 0 1 -5.29,3 19.69,19.69 0 0 1 -13.15,0 18.28,18.28 0 0 1 -5.35,-3 13.78,13.78 0 0 1 -3.6,-4.47 12.3,12.3 0 0 1 -1.28,-5.55 z"
       id="path16" />
  </g>
</svg>
